<?xml version="1.0" encoding="UTF-8" ?>
<!DOCTYPE svg PUBLIC "-//W3C//DTD SVG 1.1//EN" "http://www.w3.org/Graphics/SVG/1.1/DTD/svg11.dtd">
<svg width="473pt" height="473pt" viewBox="0 0 473 473" version="1.1" xmlns="http://www.w3.org/2000/svg">
<g id="#3239c6ff">
</g>
<g id="#000000ff">
</g>
<g id="#ffffffff">
<path fill="#ffffff" opacity="1.00" d=" M 48.49 153.50 C 55.85 142.43 68.90 136.31 81.92 135.36 C 89.71 134.93 97.98 135.17 105.01 138.96 C 109.13 141.08 112.60 145.13 112.77 149.93 C 113.27 154.48 110.58 158.50 107.97 161.96 C 99.53 158.38 89.27 155.94 80.81 160.78 C 70.68 166.19 68.39 180.17 73.02 189.95 C 77.73 199.09 89.58 201.91 98.95 199.42 C 101.99 198.87 104.83 196.93 107.96 197.12 C 113.69 200.76 116.01 209.30 112.08 215.03 C 108.77 219.44 103.29 221.61 97.98 222.36 C 85.21 224.22 71.51 222.50 60.43 215.57 C 51.28 209.98 44.37 200.68 42.27 190.11 C 39.73 177.75 41.19 164.07 48.49 153.50 Z" />
<path fill="#ffffff" opacity="1.00" d=" M 147.17 136.66 C 155.80 134.69 164.93 134.73 173.47 137.18 C 171.11 141.81 168.96 146.53 166.63 151.15 C 173.92 150.27 181.21 149.30 188.49 148.24 C 190.26 148.10 192.54 147.44 193.72 149.24 C 205.20 163.11 206.90 183.58 199.91 199.87 C 194.66 212.37 182.06 220.74 168.82 222.43 C 156.69 224.08 143.54 222.73 133.10 215.88 C 122.98 209.36 116.78 197.74 115.62 185.90 C 114.36 174.77 115.89 162.81 122.37 153.42 C 127.93 144.78 137.19 138.82 147.17 136.66 M 155.38 158.51 C 149.19 160.29 145.89 166.90 145.15 172.89 C 144.34 180.32 144.26 188.64 148.79 194.99 C 153.07 201.46 163.44 202.43 168.88 196.92 C 172.73 192.99 174.18 187.38 174.41 182.02 C 174.72 175.69 174.24 168.87 170.57 163.48 C 167.28 158.70 160.83 156.93 155.38 158.51 Z" />
<path fill="#ffffff" opacity="1.00" d=" M 220.85 141.80 C 237.27 133.51 258.59 132.10 274.29 142.78 C 280.60 139.76 286.91 136.18 294.05 135.69 C 304.99 134.59 317.20 135.68 325.99 142.96 C 332.83 148.46 335.96 157.41 335.99 166.00 C 335.99 184.25 336.05 202.51 335.95 220.76 C 328.78 222.00 321.22 222.89 314.11 220.92 C 309.46 219.57 307.10 214.60 307.10 210.06 C 306.82 196.05 307.13 182.03 306.97 168.01 C 307.07 164.65 305.81 161.01 302.69 159.34 C 297.72 156.59 291.69 158.32 287.10 161.03 C 287.22 180.93 286.94 200.82 286.97 220.72 C 279.55 221.86 271.70 223.12 264.43 220.57 C 259.83 218.83 258.08 213.54 258.07 209.01 C 257.83 194.99 258.18 180.95 257.92 166.94 C 258.02 163.23 255.53 159.70 251.91 158.76 C 247.39 156.90 242.54 158.63 238.24 160.23 C 238.20 180.39 238.41 200.55 238.08 220.71 C 230.62 221.85 222.71 223.16 215.41 220.52 C 210.48 218.61 209.10 212.76 209.15 208.00 C 209.07 192.01 209.18 176.01 209.10 160.01 C 209.14 156.41 209.10 152.44 211.37 149.42 C 213.91 146.21 217.27 143.73 220.85 141.80 Z" />
<path fill="#ffffff" opacity="1.00" d=" M 374.97 136.20 C 387.60 133.97 401.45 135.31 412.24 142.73 C 421.22 148.62 426.95 158.54 428.97 168.95 C 431.55 181.49 429.19 194.83 422.78 205.87 C 417.90 212.36 411.24 217.65 403.50 220.24 C 392.08 224.02 379.45 223.93 368.01 220.32 C 361.56 217.90 355.56 214.06 351.14 208.73 C 343.01 199.26 340.32 186.13 341.41 173.94 C 342.03 164.75 345.70 155.82 351.81 148.93 C 357.56 141.91 366.18 137.84 374.97 136.20 M 381.37 158.44 C 375.47 160.07 372.15 166.14 371.32 171.85 C 370.21 179.61 370.20 188.36 374.84 195.05 C 379.22 201.42 389.45 202.37 394.91 196.89 C 399.25 192.49 400.28 185.96 400.40 180.03 C 400.44 173.93 399.71 167.27 395.69 162.40 C 392.35 158.23 386.36 156.95 381.37 158.44 Z" />
<path fill="#ffffff" opacity="1.00" d=" M 216.40 237.62 C 226.29 235.11 236.64 234.70 246.78 235.74 C 255.73 236.75 264.71 240.04 271.16 246.53 C 273.50 249.66 275.58 253.08 276.62 256.89 C 278.47 263.08 277.91 269.62 278.00 275.99 C 277.91 285.69 278.17 295.40 277.89 305.10 C 277.62 311.32 272.20 315.61 266.94 317.95 C 254.75 323.35 240.97 323.81 227.90 322.35 C 219.70 321.41 211.24 318.61 205.53 312.35 C 197.69 303.65 196.98 289.32 204.10 279.97 C 207.68 275.25 213.35 272.72 218.93 271.22 C 229.19 268.54 239.89 268.61 250.34 267.04 C 249.67 264.32 249.31 260.90 246.51 259.49 C 242.96 257.66 238.95 256.94 234.99 256.77 C 226.35 256.83 217.84 258.70 209.64 261.35 C 205.05 257.55 203.02 250.90 205.34 245.30 C 207.44 241.05 212.02 238.81 216.40 237.62 M 229.86 289.64 C 225.48 292.05 226.87 299.09 231.16 300.80 C 237.31 302.99 244.00 301.86 250.13 300.15 C 250.13 295.54 250.12 290.92 250.13 286.31 C 243.36 287.06 236.05 286.30 229.86 289.64 Z" />
<path fill="#ffffff" opacity="1.00" d=" M 310.75 236.00 C 321.22 234.60 332.18 234.87 342.16 238.64 C 346.93 240.46 351.54 244.45 351.81 249.87 C 352.34 254.50 350.29 258.97 347.05 262.18 C 338.07 258.98 328.54 256.31 318.92 257.50 C 316.28 257.87 312.88 258.96 312.52 262.07 C 312.24 265.21 315.64 266.40 318.07 267.07 C 328.49 269.79 339.88 271.52 348.35 278.72 C 359.67 288.45 358.20 308.59 346.00 316.97 C 336.20 323.91 323.58 324.29 312.03 323.90 C 304.96 323.42 297.66 322.29 291.53 318.52 C 286.72 315.58 283.52 309.63 284.89 303.98 C 285.50 300.47 287.98 297.76 290.21 295.16 C 297.46 298.53 305.02 301.76 313.14 302.10 C 317.57 302.31 322.82 302.52 326.29 299.29 C 328.97 296.72 326.30 292.48 323.23 291.77 C 313.11 288.93 302.02 288.01 293.23 281.72 C 283.93 275.28 281.79 261.67 286.58 251.84 C 289.30 245.73 295.00 241.68 300.71 238.59 C 304.10 237.90 307.43 236.99 310.75 236.00 Z" />
<path fill="#ffffff" opacity="1.00" d=" M 114.02 241.95 C 120.57 236.58 130.12 234.24 137.96 238.10 C 142.10 240.07 144.04 244.55 145.17 248.73 C 147.75 258.41 150.15 268.14 152.71 277.83 C 154.59 284.56 155.71 291.55 158.46 298.01 C 160.93 289.83 162.68 281.45 164.75 273.16 C 167.37 261.94 169.72 250.66 172.12 239.39 C 178.34 236.91 185.31 235.06 191.95 237.05 C 195.68 238.06 199.40 240.80 199.86 244.90 C 200.46 251.53 198.19 257.95 196.60 264.30 C 190.81 282.03 184.68 299.73 176.50 316.53 C 174.88 320.15 170.78 321.35 167.23 322.14 C 160.23 323.45 152.74 323.61 145.97 321.15 C 142.09 319.90 139.56 316.41 137.99 312.83 C 133.85 303.13 130.13 293.26 126.66 283.30 C 121.97 269.66 117.35 255.99 114.02 241.95 Z" />
</g>
</svg>
