<?xml version="1.0" encoding="UTF-8" ?>
<!DOCTYPE svg PUBLIC "-//W3C//DTD SVG 1.1//EN" "http://www.w3.org/Graphics/SVG/1.1/DTD/svg11.dtd">
<svg width="1312pt" height="638pt" viewBox="0 0 1312 638" version="1.1" xmlns="http://www.w3.org/2000/svg">
<g id="#ffffffff">
<path fill="#ffffff" opacity="1.00" d=" M 344.89 8.16 C 377.66 -1.19 413.27 -3.19 446.09 7.05 C 438.67 22.94 430.35 38.40 422.82 54.24 C 450.97 51.36 478.93 46.80 507.01 43.28 C 510.42 42.99 513.02 45.59 515.09 47.94 C 530.21 65.49 540.50 86.98 545.56 109.54 C 550.18 128.28 550.58 147.76 549.31 166.94 C 546.80 197.88 535.81 228.71 515.30 252.33 C 498.99 270.68 477.09 283.60 453.71 290.76 C 436.67 295.99 418.78 298.01 401.00 298.00 C 380.99 298.26 360.80 295.84 341.78 289.43 C 317.20 281.03 294.45 266.15 278.69 245.30 C 267.26 230.72 259.10 213.71 254.07 195.91 C 247.10 168.80 246.30 140.08 251.74 112.63 C 256.43 89.87 266.29 68.01 281.07 50.01 C 297.71 30.25 320.35 15.95 344.89 8.16 M 393.33 77.30 C 381.98 78.46 371.20 84.09 364.07 93.05 C 352.16 108.22 348.43 128.10 348.62 147.00 C 348.40 166.65 350.63 187.87 363.05 203.94 C 377.98 224.64 411.64 227.78 430.02 209.99 C 442.73 197.81 447.92 180.00 449.27 162.90 C 450.29 146.53 450.25 129.70 445.16 113.92 C 441.88 103.96 436.98 94.04 428.63 87.35 C 418.80 79.57 405.78 75.93 393.33 77.30 Z" />
<path fill="#ffffff" opacity="1.00" d=" M 616.29 18.29 C 653.42 2.66 695.26 -3.39 734.95 4.92 C 753.23 8.68 770.64 16.23 786.04 26.73 C 802.00 19.12 817.70 10.47 834.92 5.89 C 845.38 3.07 856.24 2.13 867.03 1.65 C 891.98 0.55 917.63 3.79 940.34 14.67 C 947.39 18.38 954.51 22.16 960.53 27.46 C 974.88 39.53 985.09 56.27 989.82 74.37 C 994.32 90.84 993.54 108.08 993.84 124.98 C 993.96 179.70 994.03 234.42 994.02 289.14 C 975.27 292.86 956.06 295.31 936.95 293.42 C 929.69 292.58 922.16 291.92 915.61 288.41 C 907.98 284.32 901.33 277.54 899.00 269.04 C 896.20 260.32 896.01 251.06 895.88 241.99 C 895.85 198.66 895.91 155.32 895.85 111.98 C 895.89 102.77 893.98 92.61 886.77 86.21 C 880.66 81.21 872.85 78.45 865.01 77.93 C 852.25 77.02 839.80 81.61 829.07 88.21 C 828.87 155.20 829.19 222.20 828.76 289.19 C 807.14 293.17 784.78 296.33 762.96 292.02 C 756.93 290.64 750.57 289.34 745.63 285.36 C 738.65 279.98 734.51 271.69 732.61 263.23 C 730.61 255.32 731.06 247.09 731.00 239.00 C 730.75 198.00 730.92 157.00 730.88 116.00 C 730.79 109.97 731.22 103.74 729.08 97.98 C 726.76 91.06 721.61 85.05 714.86 82.15 C 698.90 74.37 679.86 78.31 664.69 86.01 C 663.95 134.00 664.53 182.00 664.38 230.00 C 664.43 249.79 664.22 269.59 663.54 289.37 C 642.48 292.73 620.87 296.30 599.63 292.31 C 591.92 290.71 583.72 288.78 577.97 283.00 C 569.44 274.39 566.50 261.81 566.40 250.02 C 565.89 192.68 566.22 135.32 566.12 77.97 C 566.32 68.32 567.23 58.04 572.80 49.83 C 583.95 35.45 599.69 25.35 616.29 18.29 Z" />
<path fill="#ffffff" opacity="1.00" d=" M 1087.45 16.52 C 1112.81 4.40 1141.36 0.23 1169.28 1.41 C 1181.71 2.00 1194.23 3.11 1206.23 6.61 C 1242.86 15.96 1276.67 39.92 1293.96 74.03 C 1305.69 96.26 1311.56 121.38 1312.00 146.46 L 1312.00 154.52 C 1311.01 185.24 1302.39 215.89 1285.92 241.92 C 1268.88 263.97 1245.42 281.50 1218.58 289.52 C 1187.53 299.34 1153.98 300.50 1122.12 294.10 C 1098.74 289.58 1076.38 279.19 1058.16 263.81 C 1044.26 252.03 1033.17 237.06 1025.38 220.63 C 1010.87 190.12 1007.28 155.17 1012.21 121.95 C 1017.12 87.57 1034.25 54.43 1061.65 32.68 C 1069.51 26.21 1078.40 21.12 1087.45 16.52 M 1151.39 78.50 C 1134.95 80.94 1122.28 94.48 1116.67 109.52 C 1110.09 127.21 1109.91 146.48 1111.37 165.07 C 1113.19 180.34 1117.11 196.47 1128.20 207.80 C 1143.10 223.92 1169.95 226.25 1187.83 213.80 C 1195.60 208.40 1200.60 200.00 1204.51 191.57 C 1210.50 177.22 1211.79 161.42 1211.46 146.02 C 1211.08 132.24 1209.27 118.20 1203.52 105.54 C 1199.38 96.33 1192.50 88.28 1183.73 83.20 C 1174.03 77.61 1162.27 76.76 1151.39 78.50 Z" />
<path fill="#ffffff" opacity="1.00" d=" M 127.49 2.77 C 139.92 1.29 152.47 0.95 164.96 1.69 C 181.83 2.81 199.20 5.32 214.05 13.93 C 226.43 20.70 237.07 32.30 239.28 46.64 C 242.67 63.02 234.36 79.14 223.82 91.15 C 222.44 91.43 221.24 90.39 219.98 90.01 C 203.00 82.62 184.59 77.83 165.97 78.27 C 148.90 78.99 131.74 85.40 119.34 97.33 C 111.34 105.30 105.38 115.33 102.33 126.21 C 98.71 140.40 97.98 155.45 101.06 169.81 C 103.61 181.27 108.81 192.42 117.36 200.64 C 130.25 213.80 148.82 220.15 166.97 220.87 C 183.46 221.52 199.71 217.29 214.88 211.10 C 217.61 210.00 220.85 208.59 223.70 210.17 C 234.13 217.55 241.77 229.04 243.51 241.79 C 244.94 252.37 243.09 263.84 236.37 272.40 C 227.61 283.73 213.93 289.84 200.46 293.57 C 171.53 299.84 141.17 299.62 112.38 292.69 C 83.73 285.79 56.47 271.38 36.41 249.56 C 19.90 232.07 8.86 209.82 3.83 186.37 C 0.84 171.14 -0.52 155.54 0.49 140.03 C 1.52 117.86 6.43 95.62 16.89 75.93 C 24.00 62.39 33.38 50.01 44.63 39.64 C 67.27 18.67 97.18 6.88 127.49 2.77 Z" />
<path fill="#ffffff" opacity="1.00" d=" M 596.00 345.85 C 621.16 339.98 647.17 338.46 672.94 339.53 C 692.18 340.44 711.56 342.87 729.78 349.37 C 746.42 355.03 762.05 364.01 774.58 376.41 C 788.53 392.38 796.58 413.05 798.34 434.08 C 799.02 447.37 798.79 460.69 798.88 473.99 C 799.32 503.67 798.96 533.34 798.81 563.02 C 798.45 570.68 799.58 578.62 796.95 586.00 C 792.56 598.92 781.75 608.65 769.95 614.91 C 746.91 628.23 720.29 633.84 694.00 635.99 C 672.68 637.58 651.19 637.56 629.96 634.89 C 613.07 632.76 596.24 628.70 580.93 621.12 C 568.98 615.58 557.94 607.68 549.66 597.37 C 528.86 570.91 525.44 532.36 540.30 502.31 C 547.33 488.36 559.07 476.80 573.31 470.30 C 594.76 459.98 618.57 456.14 642.06 453.81 C 662.72 451.57 683.53 450.60 704.05 447.14 C 703.74 437.86 701.41 427.27 693.00 421.96 C 679.98 414.62 664.76 412.43 650.00 412.23 C 639.24 412.42 628.55 413.74 617.94 415.40 C 600.47 416.80 583.88 422.80 567.01 427.09 C 562.07 424.75 558.41 420.12 555.49 415.57 C 548.30 403.56 546.97 388.41 551.26 375.16 C 555.41 365.00 564.50 357.80 574.16 353.15 C 581.13 349.90 588.44 347.33 596.00 345.85 M 670.96 514.61 C 658.32 515.52 645.41 517.78 634.33 524.26 C 628.48 527.96 625.65 535.20 626.42 541.95 C 627.30 548.57 630.51 555.04 635.86 559.16 C 639.62 562.47 644.70 563.23 649.42 564.29 C 667.72 567.65 686.51 564.51 704.09 559.09 C 704.33 543.56 704.46 528.03 704.10 512.51 C 693.08 513.60 682.00 513.88 670.96 514.61 Z" />
<path fill="#ffffff" opacity="1.00" d=" M 915.59 341.42 C 946.90 337.28 979.37 338.57 1009.51 348.60 C 1022.81 352.89 1035.86 360.53 1043.17 372.82 C 1048.65 382.15 1048.87 393.54 1046.83 403.90 C 1044.84 414.03 1039.51 423.74 1030.93 429.73 C 1000.98 418.98 969.02 409.73 936.92 414.21 C 930.18 415.23 922.82 416.77 918.02 422.00 C 913.58 426.75 913.74 435.00 918.52 439.46 C 922.83 443.51 928.74 445.04 934.28 446.65 C 956.64 452.14 979.39 456.57 1000.87 465.08 C 1012.70 469.86 1024.43 475.44 1034.23 483.75 C 1045.37 493.08 1054.33 505.39 1058.40 519.45 C 1064.31 541.01 1063.09 564.86 1053.06 585.04 C 1044.41 602.95 1028.26 616.37 1010.28 624.30 C 989.09 634.03 965.56 636.91 942.49 638.00 L 927.51 638.00 C 904.91 637.19 881.82 635.66 860.52 627.44 C 847.66 622.65 834.96 615.33 827.73 603.24 C 820.38 592.03 819.13 577.62 823.02 564.95 C 826.18 555.39 833.21 547.87 840.20 540.91 C 849.19 544.87 857.93 549.38 867.14 552.82 C 884.31 559.51 902.51 564.13 921.01 564.25 C 931.13 564.29 941.59 564.70 951.26 561.15 C 956.70 559.23 961.53 555.43 964.39 550.38 C 966.99 544.48 964.05 537.56 959.26 533.72 C 953.80 528.83 946.29 527.91 939.42 526.39 C 913.39 520.51 886.45 516.10 862.60 503.49 C 850.48 497.32 839.06 488.89 831.69 477.26 C 819.72 458.71 816.68 435.31 820.92 413.87 C 823.57 400.28 829.65 387.28 839.12 377.09 C 848.83 366.43 860.96 358.07 874.00 352.03 C 887.71 347.98 901.29 342.94 915.59 341.42 Z" />
<path fill="#ffffff" opacity="1.00" d=" M 279.57 344.40 C 295.97 340.38 314.12 341.59 328.97 350.05 C 337.76 355.03 343.12 364.16 346.63 373.34 C 350.48 384.12 352.89 395.31 355.72 406.38 C 361.38 428.84 367.52 451.17 373.17 473.64 C 378.19 493.87 383.27 514.09 388.60 534.24 C 389.93 539.64 391.07 545.71 395.78 549.30 C 406.40 507.28 416.31 465.07 425.61 422.74 C 430.71 399.65 435.06 376.38 440.31 353.34 C 455.45 346.09 472.22 341.86 489.07 342.33 C 500.05 343.08 511.34 345.32 520.76 351.27 C 529.76 357.27 534.60 368.36 534.00 379.02 C 533.33 400.11 526.64 420.30 521.38 440.55 C 501.54 499.91 481.35 559.41 453.82 615.74 C 448.45 625.65 436.54 628.34 426.57 631.24 C 406.41 635.65 385.19 636.69 364.97 632.10 C 356.38 629.86 347.24 627.60 340.47 621.51 C 331.86 613.67 326.99 602.77 322.61 592.21 C 305.60 552.68 291.75 511.90 277.91 471.19 C 266.04 435.19 254.83 398.92 246.08 362.02 C 255.72 353.70 267.24 347.59 279.57 344.40 Z" />
</g>
</svg>
